<!-- icon666.com - MILLIONS vector ICONS FREE --><svg version="1.1" id="Capa_1" xmlns="http://www.w3.org/2000/svg" xmlns:xlink="http://www.w3.org/1999/xlink" x="0px" y="0px" viewBox="0 0 512 512" style="enable-background:new 0 0 512 512;" xml:space="preserve"><g><g><path d="M257.54,144.441h-3.08c-21.142,0-38.342,17.2-38.342,38.343v26.422c0,8.284,6.716,15,15,15h49.764c8.284,0,15-6.716,15-15 v-26.422C295.882,161.641,278.682,144.441,257.54,144.441z M265.882,194.206h-19.764v-11.422c0-4.601,3.742-8.343,8.342-8.343 h3.08c4.6,0,8.342,3.742,8.342,8.343V194.206z"></path></g></g><g><g><path d="M442.699,357.122h-20.206l-25.308-253.788c-0.675-6.773-5.789-12.114-12.283-13.271V15c0-8.284-6.716-15-15-15H320.75 c-8.284,0-15,6.716-15,15v19.284h-10.175V15c0-8.284-6.716-15-15-15h-49.151c-8.284,0-15,6.716-15,15v19.284H206.25V15 c0-8.284-6.716-15-15-15h-49.152c-8.284,0-15,6.716-15,15v75.063c-6.494,1.158-11.608,6.498-12.283,13.271L89.507,357.122H69.301 c-24.813,0-45,20.187-45,45V467c0,24.813,20.187,45,45,45h373.398c24.813,0,45-20.187,45-45v-64.878 C487.699,377.309,467.512,357.122,442.699,357.122z M157.098,30h19.152v19.284c0,8.284,6.716,15,15,15h40.174 c8.284,0,15-6.716,15-15V30h19.151v19.284c0,8.284,6.716,15,15,15h40.175c8.284,0,15-6.716,15-15V30h19.151v59.473H157.098V30z M143.319,119.822H368.68l12.256,122.903H131.063L143.319,119.822z M128.072,272.726h255.857l8.416,84.396H119.656 L128.072,272.726z M457.699,467c0,8.271-6.729,15-15,15H69.301c-8.271,0-15-6.729-15-15v-64.878c0-8.271,6.729-15,15-15h373.398 c8.271,0,15,6.729,15,15V467z"></path></g></g></svg>